<svg height="490.4pt" viewBox="0 0 490.4 490.4" width="490.4pt" xmlns="http://www.w3.org/2000/svg"><path d="m245.199219 490.398438c-135.203125 0-245.199219-109.996094-245.199219-245.199219s109.996094-245.199219 245.199219-245.199219 245.199219 109.996094 245.199219 245.199219-109.996094 245.199219-245.199219 245.199219zm0-482.398438c-130.792969 0-237.199219 106.40625-237.199219 237.199219s106.40625 237.199219 237.199219 237.199219 237.199219-106.40625 237.199219-237.199219-106.40625-237.199219-237.199219-237.199219zm0 0" fill="#3762cc"/><path d="m451.855469 489.199219h-412.351563c-2.210937 0-4-1.792969-4-4v-480c0-2.207031 1.789063-4 4-4h412.351563c2.207031 0 4 1.792969 4 4v480c0 2.207031-1.792969 4-4 4zm-408.351563-8h404.351563v-472h-404.351563zm0 0" fill="#3762cc"/><path d="m443.4375 164.253906h-9.824219c2.640625 0 4.746094-2.269531 4.476563-4.964844-.234375-2.339843-2.378906-4.035156-4.734375-4.035156h-17.542969c-1.109375 0-2.171875.460938-2.929688 1.277344l-7.1875 7.722656h.234376c-3.953126 0-7.214844 2.875-7.863282 6.640625l-108.15625-13.148437c-7.125-8.1875-16.773437-14.121094-27.730468-16.585938v-7.695312c16.753906-6.039063 29.59375-20.269532 33.695312-37.859375 4.03125.429687 8.445312-.429688 13.546875-5.832031 2.722656-2.894532 4.46875-6.640626 4.386719-10.617188-.179688-8.789062-7.363282-15.855469-16.195313-15.855469-.113281 0-.222656.011719-.335937.015625v-3.910156c0-28.933594-22.683594-53.390625-51.605469-54.183594-30.011719-.824218-54.59375 23.257813-54.59375 53.078125v5.019531c-.113281-.003906-.222656-.019531-.335937-.019531-8.945313 0-16.195313 7.25-16.199219 16.195313-.003907 4.039062 1.847656 7.832031 4.703125 10.691406 5.027344 5.035156 9.304687 5.839844 13.234375 5.417969 4.105469 17.589843 16.941406 31.824219 33.699219 37.863281v8.058594c-10.246094 2.613281-19.28125 8.265625-26.066407 15.957031l-107.785156 13.105469c-.648437-3.773438-3.910156-6.644532-7.863281-6.644532h.234375l-7.1875-7.726562c-.757813-.8125-1.820313-1.273438-2.929688-1.273438h-17.542969c-2.355468 0-4.5 1.691407-4.734374 4.035157-.269532 2.695312 1.835937 4.964843 4.476562 4.964843h-9.824219c-4.417969 0-8 3.582032-8 8v27c0 4.417969 3.582031 8 8 8h37.503907c4.054687 0 7.367187-3.023437 7.894531-6.933593h94.773437v115.890625h.242188v.964844h-.472656v41l10.355468 110.644531c.179688 1.9375-1.0625 3.726562-2.945312 4.234375l-15.859375 4.265625c-1.476563.398437-2.71875 1.527343-3.066407 3.015625-.644531 2.734375 1.429688 5.15625 4.054688 5.128906l51.738281-.578125c2.097657-.023437 3.820313-1.667969 3.945313-3.761719l8.050781-134.945312h2.976563l8.050781 134.945312c.125 2.09375 1.847656 3.738282 3.945312 3.761719l51.582031.574219c1.867188.023437 3.628907-1.121094 4.152344-2.910156.683594-2.332032-.691406-4.605469-2.875-5.195313l-15.992187-4.300781c-1.882813-.507813-3.128907-2.296875-2.945313-4.234375l10.351563-110.644531v-12h.238281v-145.546876h95.382812c.523438 3.910157 3.839844 6.933594 7.890626 6.933594h37.503906c4.417968 0 8-3.582031 8-8v-27c.003906-4.417968-3.578125-8-7.996094-8zm0 0" fill="#f9cfcf"/><path d="m179.386719 489.152344c-2.480469 0-4.789063-1.105469-6.339844-3.042969-1.574219-1.964844-2.140625-4.515625-1.558594-7 .675781-2.875 2.949219-5.160156 5.921875-5.960937l15.859375-4.265626-10.351562-110.640624c-.011719-.125-.019531-.25-.019531-.375v-41c0-.476563.085937-.933594.238281-1.359376v-111.496093h-87.832031c-1.925782 4.121093-6.109376 6.933593-10.835938 6.933593h-37.503906c-6.617188 0-12-5.382812-12-12v-27c0-6.621093 5.382812-12 12-12h1.335937c-.027343-.453124-.015625-.910156.027344-1.367187.429687-4.28125 4.257813-7.636719 8.714844-7.636719h17.542969c2.214843 0 4.347656.929688 5.855468 2.550782l6.183594 6.644531c3.601562.652343 6.675781 2.917969 8.382812 6.09375l103.144532-12.539063c6.605468-7.089844 14.835937-12.289062 24.03125-15.183594v-2.304687c-15.945313-6.644531-27.917969-20.011719-32.769532-36.554687-4.671874-.347657-8.867187-2.503907-12.992187-6.636719-3.792969-3.796875-5.878906-8.597657-5.875-13.519531.003906-9.882813 7.144531-18.128907 16.535156-19.859376v-1.332031c0-15.546875 6.136719-30.085937 17.285157-40.929687 11.140624-10.839844 25.867187-16.605469 41.414062-16.148438 30.601562.835938 55.5 26.9375 55.5 58.179688v.238281c9.207031 1.71875 16.332031 9.78125 16.53125 19.433594.097656 4.816406-1.84375 9.589843-5.476562 13.441406-4.207032 4.457031-8.527344 6.777344-13.386719 7.132813-4.847657 16.542968-16.824219 29.910156-32.765625 36.554687v1.855469c9.875 2.820312 18.6875 8.265625 25.707031 15.902344l103.5 12.582031c1.707031-3.171875 4.78125-5.4375 8.382813-6.09375l6.183593-6.640625c1.507813-1.621094 3.640625-2.550782 5.855469-2.550782h17.542969c4.457031 0 8.285156 3.355469 8.714843 7.636719.042969.457031.054688.914063.027344 1.363281h1.335938c6.617187 0 12 5.382813 12 12v27c0 6.617188-5.382813 12-12 12h-37.503906c-4.726563 0-8.910157-2.8125-10.835938-6.933593h-88.433594v141.546875c0 .480468-.085937.941406-.238281 1.367187v10.632813c0 .121094-.007813.25-.019531.371094l-10.351563 110.640624 15.992188 4.304688c2.09375.5625 3.910156 1.972656 4.972656 3.867188 1.082031 1.921874 1.332031 4.164062.703125 6.308593-1.011719 3.449219-4.332031 5.792969-8.035156 5.789063l-51.582032-.574219c-4.179687-.046875-7.648437-3.351563-7.898437-7.523437l-5.542969-92.984376-5.546875 92.984376c-.25 4.171874-3.71875 7.476562-7.894531 7.523437l-51.738281.578125c-.03125-.003906-.0625-.003906-.09375-.003906zm11.511719-131.472656 10.335937 110.453124c.363281 3.894532-2.113281 7.460938-5.886719 8.472657l-15.859375 4.265625c-.132812.035156-.21875.109375-.238281.136718l.183594 4.144532-.042969-4 51.738281-.578125 8.046875-134.945313c.125-2.113281 1.875-3.761718 3.996094-3.761718h2.976563c2.117187 0 3.871093 1.652343 3.996093 3.761718l8.046875 134.945313 51.582032.578125c.128906.015625.273437-.074219.296874-.097656l-16.097656-4.449219c-3.773437-1.011719-6.25-4.578125-5.882812-8.46875l10.332031-110.457031v-11.8125c0-.480469.085937-.941407.238281-1.367188v-144.175781c0-2.207031 1.792969-4 4-4h95.378906c2.003907 0 3.695313 1.480469 3.964844 3.464843.265625 1.976563 1.957032 3.464844 3.929688 3.464844h37.503906c2.203125 0 4-1.792968 4-4v-27c0-2.207031-1.796875-4-4-4h-9.824219c-2.207031 0-4-1.792968-4-4 0-2.207031 1.792969-4 4-4 .183594 0 .304688-.089844.371094-.164062.152344-.164063.132813-.34375.128906-.402344-.015625-.171875-.363281-.433594-.753906-.433594h-17.542969l-6.289062 6.757813c-.652344 1.328125-2.015625 2.242187-3.59375 2.242187-1.941406 0-3.589844 1.394532-3.917969 3.320313-.363281 2.101562-2.308594 3.542969-4.425781 3.292969l-108.15625-13.148438c-.980469-.117188-1.882813-.597656-2.535156-1.34375-6.765626-7.769531-15.613282-13.066406-25.589844-15.308594-1.828125-.410156-3.125-2.03125-3.125-3.902344v-7.695312c0-1.6875 1.058594-3.191406 2.644531-3.761719 15.71875-5.667969 27.367187-18.753906 31.160156-35.007812.457031-1.96875 2.300781-3.296875 4.320313-3.070313 2.761718.296875 5.921875-.054687 10.210937-4.597656 2.183594-2.316406 3.355469-5.082031 3.296875-7.785156-.132812-6.585938-5.605468-11.941406-12.195312-11.941406l-.265625.015624c-1.121094.054688-2.109375-.394531-2.875-1.144531-.765625-.753906-1.195313-1.78125-1.195313-2.855469v-3.914062c0-26.949219-21.40625-49.460938-47.71875-50.183594-13.410156-.378906-26.039062 4.566406-35.621094 13.886719-9.582031 9.324219-14.859374 21.824219-14.859374 35.191406v5.019531c0 1.074219-.433594 2.101563-1.199219 2.851563-.761719.753906-1.757813 1.195313-2.871094 1.144531-.070313 0-.300781-.011718-.371094-.015625-6.621093 0-12.09375 5.472657-12.097656 12.195313 0 2.785156 1.253906 5.578125 3.539063 7.863281 4.226562 4.238281 7.289062 4.550781 9.976562 4.269531 2-.226562 3.859375 1.101563 4.320312 3.066406 3.792969 16.253907 15.4375 29.339844 31.15625 35.007813 1.585938.574219 2.644532 2.078125 2.644532 3.761719v8.058594c0 1.828124-1.238282 3.425781-3.007813 3.875-9.339843 2.382812-17.660156 7.476562-24.058593 14.730468-.648438.734375-1.542969 1.207032-2.515626 1.324219l-107.785156 13.101563c-2.121094.261718-4.0625-1.191407-4.425781-3.292969-.328125-1.921875-1.976563-3.320313-3.917969-3.320313-1.582031 0-2.945312-.914062-3.59375-2.242187l-6.289062-6.757813h-17.542969c-.390625 0-.734375.261719-.75.433594-.007813.058594-.023437.234375.125.398438.066406.078124.1875.167968.371094.167968 2.210937 0 4 1.789063 4 4 0 2.207032-1.789063 4-4 4h-9.820313c-2.207031 0-4 1.792969-4 4v27c0 2.203125 1.792969 4 4 4h37.503906c1.972657 0 3.660157-1.492187 3.925782-3.46875.269531-1.984375 1.960937-3.464844 3.964844-3.464844h94.777343c2.210938 0 4 1.792969 4 4v114.523438c.15625.425781.242188.886719.242188 1.367188v.964843c0 .6875-.171875 1.332031-.480469 1.898438v38.917969zm0 0" fill="#3762cc"/><path d="m50.847656 127.363281 33.414063 17.027344c3.609375 1.839844 7.9375.648437 10.179687-2.59375l45.207032 23.03125 60.46875-7.347656c1.890624-2.144531 3.976562-4.113281 6.195312-5.917969l-98.535156-35.996094c1.132812-3.652344-.46875-7.695312-3.992188-9.488281l.207032.105469-2.894532-10.144532c-.308594-1.070312-1.042968-1.964843-2.03125-2.46875l-15.632812-7.960937c-2.097656-1.070313-4.777344-.535156-6.050782 1.445313-1.460937 2.28125-.613281 5.257812 1.738282 6.457031l-8.753906-4.460938c-3.933594-2.003906-8.753907-.4375-10.757813 3.496094l-12.257813 24.058594c-2.007812 3.933593-.441406 8.753906 3.496094 10.757812zm0 0" fill="#f9a7a7"/><path d="m139.648438 168.832031c-.625 0-1.25-.148437-1.8125-.4375l-42.582032-21.695312c-3.589844 2.796875-8.59375 3.40625-12.804687 1.257812l-33.417969-17.027343c-2.855469-1.457032-4.976562-3.9375-5.964844-6.984376-.992187-3.050781-.738281-6.300781.71875-9.15625l12.257813-24.058593c1.457031-2.855469 3.9375-4.972657 6.984375-5.964844 3.046875-.988281 6.296875-.734375 9.15625.71875l1.191406.609375c.179688-.414062.394531-.816406.644531-1.203125 2.328125-3.621094 7.261719-4.871094 11.230469-2.847656l15.632812 7.964843c1.972657 1.003907 3.453126 2.800782 4.058594 4.933594l2.492188 8.722656c2.914062 2.21875 4.625 5.632813 4.703125 9.234376l95.546875 34.90625c1.351562.496093 2.335937 1.675781 2.574218 3.09375.234376 1.417968-.304687 2.859374-1.421874 3.765624-2.121094 1.722657-4.042969 3.5625-5.71875 5.460938-.648438.734375-1.546876 1.203125-2.515626 1.324219l-60.46875 7.347656c-.160156.023437-.320312.035156-.484374.035156zm-45.203126-31.035156c.613282 0 1.234376.140625 1.8125.4375l44.121094 22.480469 57.777344-7.023438c.199219-.210937.398438-.417968.601562-.628906l-92.355468-33.742188c-2.003906-.730468-3.082032-2.90625-2.449219-4.941406.582031-1.863281-.253906-3.855468-1.988281-4.738281-1.40625-.714844-2.207032-2.152344-2.183594-3.628906l-2.535156-8.878907-15.632813-7.960937c-.359375-.1875-.773437-.101563-.867187.042969-.03125.046875-.128906.199218-.070313.414062.027344.097656.09375.230469.253907.316406h.003906c1.964844 1.003907 2.75 3.414063 1.746094 5.378907-1 1.972656-3.410157 2.753906-5.378907 1.75-.003906-.003907-.011719-.003907-.015625-.007813l-8.738281-4.453125c-.949219-.480469-2.03125-.570312-3.050781-.238281-1.015625.328125-1.84375 1.035156-2.328125 1.988281l-12.253907 24.058594c-.484374.949219-.570312 2.035156-.238281 3.050781.328125 1.015625 1.035157 1.839844 1.984375 2.328125l33.417969 17.027344c1.753906.890625 3.9375.332031 5.070313-1.304687.773437-1.113282 2.019531-1.726563 3.296874-1.726563zm0 0" fill="#3762cc"/><path d="m283.683594 151.710938c2.238281 1.839843 4.328125 3.851562 6.230468 6.035156l60.339844 7.339844 45.703125-23.289063c2.246094 3.242187 6.570313 4.433594 10.179688 2.59375l33.414062-17.023437c3.9375-2.007813 5.503907-6.824219 3.496094-10.761719l-12.257813-24.058594c-2.003906-3.933594-6.824218-5.5-10.757812-3.496094l-8.753906 4.460938c2.351562-1.199219 3.199218-4.175781 1.738281-6.457031-1.273437-1.980469-3.953125-2.515626-6.050781-1.445313l-15.632813 7.960937c-.988281.503907-1.726562 1.398438-2.03125 2.46875l-2.898437 10.144532.210937-.105469c-3.523437 1.792969-5.125 5.835937-3.992187 9.488281zm0 0" fill="#f9a7a7"/><path d="m350.253906 169.085938c-.160156 0-.320312-.011719-.480468-.03125l-60.339844-7.335938c-.984375-.121094-1.886719-.597656-2.539063-1.34375-1.699219-1.957031-3.636719-3.832031-5.753906-5.574219-1.109375-.914062-1.644531-2.347656-1.402344-3.761719.242188-1.417968 1.222657-2.59375 2.570313-3.085937l95.953125-35.054687c.082031-3.601563 1.789062-7.015626 4.703125-9.234376l2.496094-8.726562c.605468-2.128906 2.085937-3.925781 4.0625-4.929688l15.625-7.964843c3.972656-2.023438 8.90625-.769531 11.234374 2.847656.246094.386719.460938.789063.640626 1.203125l1.191406-.609375c2.855468-1.453125 6.105468-1.710937 9.15625-.71875 3.050781.992187 5.527344 3.109375 6.984375 5.964844l12.257812 24.058593c1.457031 2.855469 1.710938 6.105469.722657 9.15625-.992188 3.046876-3.109376 5.527344-5.964844 6.984376l-33.417969 17.027343c-4.214844 2.144531-9.21875 1.539063-12.804687-1.257812l-43.078126 21.949219c-.5625.289062-1.1875.4375-1.816406.4375zm-58.367187-15.125 57.640625 7.003906 44.613281-22.734375c1.785156-.910157 3.96875-.355469 5.105469 1.292969 1.136718 1.636718 3.316406 2.195312 5.074218 1.300781l33.417969-17.027344c.953125-.484375 1.65625-1.3125 1.988281-2.328125.328126-1.015625.246094-2.097656-.242187-3.050781l-12.257813-24.058594c-.484374-.953125-1.3125-1.65625-2.328124-1.988281-1.019532-.332032-2.101563-.242188-3.050782.242187l-8.75 4.457031c-1.972656 1.003907-4.378906.222657-5.382812-1.75-1.003906-1.964843-.222656-4.375 1.75-5.378906.164062-.085937.230468-.21875.253906-.316406.058594-.214844-.039062-.363281-.070312-.414062-.09375-.144532-.507813-.230469-.867188-.046876l-15.632812 7.964844-2.535157 8.878906c.023438 1.476563-.777343 2.914063-2.183593 3.628907-1.730469.878906-2.566407 2.875-1.988282 4.734375.632813 2.039062-.445312 4.214844-2.445312 4.945312l-92.800782 33.902344c.234376.25.464844.496094.691407.742188zm0 0" fill="#3762cc"/><path d="m186.898438 357.867188v-41h.480468v-.96875h-.242187v-1.15625l-11.804688 11.804687-70.914062 85.558594c-1.242188 1.5-3.386719 1.882812-5.074219.914062l-14.351562-8.265625c-1.617188-.933594-3.65625-.664062-4.976563.65625-1.625 1.625-1.609375 4.261719.03125 5.867188l36.996094 36.175781c1.5 1.46875 3.882812 1.523437 5.449219.132813l67.222656-59.65625zm0 0" fill="#f9a7a7"/><path d="m119.839844 452.582031c-2.027344 0-4.050782-.761719-5.597656-2.269531l-36.992188-36.175781c-1.5625-1.527344-2.433594-3.578125-2.445312-5.761719-.011719-2.1875.835937-4.246094 2.378906-5.789062 2.59375-2.597657 6.625-3.128907 9.800781-1.296876l14.351563 8.265626 70.910156-85.558594c.082031-.09375.164062-.1875.253906-.273438l11.804688-11.808594c1.144531-1.140624 2.867187-1.484374 4.359374-.867187 1.425782.589844 2.375 1.941406 2.460938 3.46875.160156.429687.25.898437.25 1.382813v.96875c0 .683593-.171875 1.332031-.480469 1.894531v38.917969l2.796875 29.875c.117188 1.269531-.375 2.515624-1.328125 3.367187l-67.222656 59.652344c-1.503906 1.339843-3.402344 2.007812-5.300781 2.007812zm-36.847656-44.363281-.1875.109375 37.035156 36.265625 65.703125-58.308594-2.625-28.046875c-.011719-.121093-.019531-.25-.019531-.371093v-33.230469l-4.609376 4.605469-70.792968 85.414062c-2.5 3.007812-6.765625 3.777344-10.152344 1.828125zm0 0" fill="#3762cc"/><path d="m405.410156 404.753906-14.351562 8.265625c-1.6875.96875-3.832032.585938-5.074219-.914062l-70.914063-85.558594-12.410156-12.40625v31.726563h-.238281v12l-2.730469 29.179687 65.34375 57.984375c3.1875 2.832031 8.023438 2.714844 11.074219-.265625l34.246094-33.488281c1.640625-1.605469 1.65625-4.242188.03125-5.867188-1.320313-1.316406-3.359375-1.589844-4.976563-.65625zm0 0" fill="#f9a7a7"/><path d="m370.421875 451.066406c-2.875 0-5.75-1.007812-8.042969-3.042968l-65.34375-57.984376c-.953125-.847656-1.445312-2.097656-1.328125-3.363281l2.714844-28.996093v-11.8125c0-.480469.082031-.941407.238281-1.371094v-30.355469c0-1.617187.972656-3.078125 2.46875-3.695313 1.492188-.621093 3.21875-.28125 4.359375.867188l12.40625 12.410156c.089844.085938.171875.179688.253907.273438l70.914062 85.554687 14.347656-8.261719c3.179688-1.835937 7.210938-1.300781 9.800782 1.292969 1.550781 1.546875 2.394531 3.605469 2.382812 5.792969-.015625 2.1875-.882812 4.234375-2.445312 5.761719l-34.246094 33.488281c-2.339844 2.285156-5.410156 3.441406-8.480469 3.441406zm-66.558594-65.667968 63.828125 56.640624c1.609375 1.429688 4.078125 1.371094 5.621094-.136718l34.246094-33.488282s-.152344-.199218-.152344-.199218l-14.347656 8.265625c-3.386719 1.953125-7.65625 1.183593-10.152344-1.828125l-70.792969-85.410156-5.449219-5.449219v22.070312c0 .480469-.085937.941407-.238281 1.367188v10.632812c0 .125-.007812.25-.019531.371094zm101.542969 19.355468h.023438zm0 0" fill="#3762cc"/></svg>