<svg height="512pt" viewBox="-115 0 512 512" width="512pt" xmlns="http://www.w3.org/2000/svg"><path d="m273.492188 54.5v183c0 16.570312-13.429688 30-30 30h-121.5c-27.617188 0-110.109376-123.238281-110.109376-123.238281-5.851562-5.863281-5.851562-15.363281 0-21.222657 2.929688-2.929687 6.769532-4.390624 10.609376-4.390624 3.839843 0 7.679687 1.460937 10.609374 4.390624l25.859376 25.859376c12.582031 12.582031 34.082031 3.710937 34.140624-14.070313l.320313-82.296875.070313-18.03125c0-8.28125 6.710937-15 15-15 4.140624 0 7.890624 1.679688 10.601562 4.398438 2.71875 2.710937 4.398438 6.460937 4.398438 10.601562v99c0 3.308594 2.679687 6 6 6h8c3.308593 0 6-2.691406 6-6v-111c0-8.28125 6.710937-15 15-15 4.140624 0 7.890624 1.679688 10.601562 4.398438 2.71875 2.710937 4.398438 6.460937 4.398438 10.601562v111c0 3.308594 2.691406 6 6 6h8c3.308593 0 6-2.691406 6-6v-99c0-8.28125 6.71875-15 15-15 4.140624 0 7.890624 1.679688 10.601562 4.398438 2.71875 2.710937 4.398438 6.460937 4.398438 10.601562v99c0 3.308594 2.691406 6 6 6h8c3.308593 0 6-2.691406 6-6v-79c0-8.28125 6.71875-15 15-15 4.140624 0 7.890624 1.679688 10.601562 4.398438 2.71875 2.710937 4.398438 6.460937 4.398438 10.601562zm0 0" fill="#ebad88"/><path d="m258.492188 39.5c-8.28125 0-14.996094 6.714844-15 14.996094v.003906 183c0 16.566406-13.429688 30-30 30h30c16.570312 0 30-13.433594 30-30v-183c0-8.285156-6.714844-15-15-15zm0 0" fill="#e8916f"/><path d="m126.492188 267.5h120v237h-120zm0 0" fill="#ebad88"/><path d="m216.492188 267.5h30v237h-30zm0 0" fill="#e8916f"/><path d="m213.707031 327.507812c0 15.027344-12.183593 27.210938-27.214843 27.210938-15.027344 0-27.210938-12.183594-27.210938-27.210938 0-15.027343 12.183594-27.210937 27.210938-27.210937 15.03125 0 27.214843 12.183594 27.214843 27.210937zm0 0" fill="#ba68c8"/><path d="m186.492188 300.296875c-5.542969 0-10.695313 1.664063-15 4.511719 7.359374 4.871094 12.214843 13.214844 12.214843 22.699218 0 9.484376-4.855469 17.832032-12.214843 22.703126 4.304687 2.847656 9.457031 4.507812 15 4.507812 15.03125 0 27.214843-12.183594 27.214843-27.210938 0-15.027343-12.183593-27.210937-27.214843-27.210937zm0 0" fill="#ab47bc"/><path d="m186.496094 497h-52.503906v-177c0-4.144531-3.355469-7.5-7.5-7.5-4.140626 0-7.5 3.355469-7.5 7.5v184.5c0 4.144531 3.359374 7.5 7.5 7.5h60.003906c4.144531 0 7.5-3.355469 7.5-7.5s-3.355469-7.5-7.5-7.5zm0 0"/><path d="m273.5 71c4.144531 0 7.5-3.355469 7.5-7.5v-9c0-12.40625-10.09375-22.5-22.5-22.5s-22.5 10.09375-22.5 22.5v77.5h-5v-97.5c0-12.40625-10.097656-22.5-22.503906-22.5s-22.5 10.09375-22.5 22.5v97.5h-5v-109.5c0-12.40625-10.09375-22.5-22.503906-22.5-12.40625 0-22.5 10.09375-22.5 22.5v109.5h-5v-97.5c0-12.40625-10.09375-22.5-22.5-22.5s-22.503907 10.09375-22.503907 22.472656l-.386719 100.234375v.15625c-.039062 5.191407-2.925781 9.472657-7.738281 11.453125-4.824219 1.988282-9.910156.972656-13.601562-2.71875l-25.859375-25.859375c-8.800782-8.804687-23.058594-8.769531-31.832032.003907-8.570312 8.585937-8.757812 22.4375-.550781 31.246093 2.914063 4.324219 22.441407 33.09375 44.648438 61.511719 40.605469 51.964844 58.582031 62.625 68.324219 64.25v12.25c0 4.144531 3.359374 7.5 7.5 7.5 4.144531 0 7.5-3.355469 7.5-7.5v-12h29.613281l11.191406 19.824219c-13.402344 4.8125-23.015625 17.648437-23.015625 32.683593 0 16.566407 11.667969 30.457032 27.214844 33.894532v6.488281h-7.882813c-4.144531 0-7.5 3.355469-7.5 7.5 0 4.140625 3.355469 7.5 7.5 7.5h7.882813v13.171875c0 4.140625 3.355468 7.5 7.5 7.5 4.140625 0 7.5-3.359375 7.5-7.5v-13.171875h7.84375c4.144531 0 7.5-3.359375 7.5-7.5 0-4.144531-3.355469-7.5-7.5-7.5h-7.84375v-6.488281c15.546875-3.4375 27.210937-17.328125 27.210937-33.894532 0-15.121093-9.722656-28.015624-23.242187-32.761718l10.554687-19.746094h30.480469v222h-19.5c-4.144531 0-7.5 3.355469-7.5 7.5s3.355469 7.5 7.5 7.5h27c4.140625 0 7.5-3.355469 7.5-7.5v-230.996094c15.582031-4.554687 27-18.96875 27-36.003906v-141.5c0-4.144531-3.359375-7.5-7.5-7.5-4.144531 0-7.5 3.355469-7.5 7.5v39.621094l-66.472656 124.378906h-27.164063l-71.753906-127.125.378906-98.375c0-4.136719 3.367188-7.5 7.5-7.5 4.136719 0 7.503907 3.363281 7.503907 7.5v99c0 7.445312 6.054687 13.5 13.5 13.5h8c7.445312 0 13.5-6.054688 13.5-13.5v-111c0-4.136719 3.363281-7.5 7.5-7.5 4.136718 0 7.5 3.363281 7.5 7.5v111c0 7.445312 6.054687 13.5 13.5 13.5h8c7.445312 0 13.5-6.054688 13.5-13.5v-99c0-4.136719 3.363281-7.5 7.5-7.5 4.136718 0 7.5 3.363281 7.5 7.5v99c0 7.445312 6.058593 13.5 13.503906 13.5h8c7.445312 0 13.5-6.054688 13.5-13.5v-79c0-4.136719 3.363281-7.5 7.5-7.5 4.136718 0 7.5 3.363281 7.5 7.5v9c.003906 4.144531 3.359375 7.5 7.503906 7.5zm-7.5 96.445312v70.054688c0 12.40625-10.09375 22.5-22.5 22.5h-26.964844zm-59.792969 160.0625c0 10.871094-8.84375 19.710938-19.710937 19.710938-10.867188 0-19.710938-8.839844-19.710938-19.710938 0-10.867187 8.84375-19.710937 19.710938-19.710937 10.867187 0 19.710937 8.84375 19.710937 19.710937zm-14.695312-52.507812-5.195313 9.722656-5.484375-9.722656zm-36.371094-15h-33.148437c-2.269532 0-15.808594-2.828125-59.457032-58.679688-26.128906-33.425781-43.910156-60.914062-45.347656-62.359374-2.925781-2.929688-2.925781-7.691407-.003906-10.617188 2.910156-2.914062 7.671875-2.941406 10.613281 0l25.859375 25.859375c8 8 19.46875 10.292969 29.925781 5.980469 4.332031-1.785156 7.984375-4.492188 10.785157-7.855469zm0 0"/></svg>